<?xml version="1.0" standalone="no"?><!DOCTYPE svg PUBLIC "-//W3C//DTD SVG 1.1//EN" "http://www.w3.org/Graphics/SVG/1.1/DTD/svg11.dtd"><svg t="1685084174488" class="icon" viewBox="0 0 1024 1024" version="1.1" xmlns="http://www.w3.org/2000/svg" p-id="4930" xmlns:xlink="http://www.w3.org/1999/xlink" width="32" height="32"><path d="M849.170732 0c97.404878 0 174.829268 77.42439 174.829268 174.829268v674.341464c0 97.404878-77.42439 174.829268-174.829268 174.829268H174.829268c-97.404878 0-174.829268-77.42439-174.829268-174.829268V174.829268c0-97.404878 77.42439-174.829268 174.829268-174.829268h674.341464z m-124.878049 434.57561c-4.995122 0-7.492683 0-12.487805 2.497561l-179.82439 102.4c-7.492683 4.995122-12.487805 12.487805-12.487805 22.478049v207.29756c0 12.487805 9.990244 22.478049 22.478049 24.97561h2.497561c4.995122 0 7.492683 0 12.487805-2.497561l179.82439-102.4c7.492683-4.995122 12.487805-12.487805 12.487805-22.478049v-207.29756c0-12.487805-9.990244-22.478049-22.478049-24.97561H724.292683z m-469.541463 9.990244c-2.497561 4.995122-4.995122 9.990244-4.995122 14.985366v207.29756c0 9.990244 4.995122 17.482927 12.487804 22.478049l179.824391 102.4c9.990244 4.995122 24.97561 2.497561 32.468292-7.492683l2.497561-2.497561c2.497561-2.497561 2.497561-7.492683 2.497561-12.487805v-207.29756c0-9.990244-4.995122-17.482927-12.487805-22.478049l-179.82439-102.4c-9.990244-4.995122-24.97561-2.497561-32.468292 7.492683z m219.785365-174.829269l-162.341463 92.409756c-9.990244 4.995122-14.985366 19.980488-9.990244 29.970732l2.497561 2.497561c2.497561 4.995122 4.995122 7.492683 9.990244 9.990244l177.326829 99.902439c7.492683 4.995122 17.482927 4.995122 24.97561 0l177.326829-99.902439c9.990244-4.995122 14.985366-19.980488 9.990244-29.970732l-2.497561-2.497561c-2.497561-4.995122-4.995122-7.492683-9.990244-9.990244L524.487805 269.736585c-14.985366-9.990244-34.965854-9.990244-49.95122 0z" fill="#CA63E4" p-id="4931"></path></svg>